<svg xmlns="http://www.w3.org/2000/svg" viewBox="0 0 222 222"><defs><style>.cls-1{fill:#fff;}.cls-2,.cls-3{fill:none;stroke:#000;stroke-miterlimit:10;stroke-width:4px;}.cls-3{stroke-dasharray:11.78 11.78;}</style></defs><g id="Calque_2" data-name="Calque 2"><g id="Calque_1-2" data-name="Calque 1"><circle class="cls-1" cx="82.5" cy="150.5" r="58.5"/><path d="M82.5,96A54.5,54.5,0,1,1,28,150.5,54.56,54.56,0,0,1,82.5,96m0-8A62.5,62.5,0,1,0,145,150.5,62.5,62.5,0,0,0,82.5,88Z"/><circle class="cls-1" cx="154.5" cy="52.5" r="37.5"/><path d="M154.5,19A33.5,33.5,0,1,1,121,52.5,33.54,33.54,0,0,1,154.5,19m0-8A41.5,41.5,0,1,0,196,52.5,41.5,41.5,0,0,0,154.5,11Z"/><rect class="cls-1" x="47" y="119" width="29" height="29"/><path d="M74,121v25H49V121H74m4-4H45v33H78V117Z"/><rect class="cls-1" x="91" y="135" width="27" height="27"/><path d="M116,137v23H93V137h23m4-4H89v31h31V133Z"/><rect class="cls-1" x="66" y="167" width="18" height="18"/><path d="M82,169v14H68V169H82m4-4H64v22H86V165Z"/><rect x="138" y="32" width="25" height="11"/><path d="M161,34v7H140V34h21m4-4H136V45h29V30Z"/><rect x="154" y="54" width="20" height="20"/><path d="M172,56V72H156V56h16m4-4H152V76h24V52Z"/><rect class="cls-1" x="138" y="61" width="2" height="5"/><polygon points="142 59 136 59 136 68 142 68 142 59 142 59"/><path d="M186,8a28,28,0,0,1,28,28V186a28,28,0,0,1-28,28H36A28,28,0,0,1,8,186V36A28,28,0,0,1,36,8H186m0-8H36A36,36,0,0,0,0,36V186a36,36,0,0,0,36,36H186a36,36,0,0,0,36-36V36A36,36,0,0,0,186,0Z"/><line class="cls-2" x1="219" y1="164" x2="214.12" y2="160.51"/><line class="cls-3" x1="204.54" y1="153.65" x2="17.67" y2="19.92"/><line class="cls-2" x1="12.88" y1="16.49" x2="8" y2="13"/></g></g></svg>