<svg xmlns="http://www.w3.org/2000/svg" viewBox="0 0 257.51 255"><defs><style>.cls-1{fill:none;stroke:#000;stroke-miterlimit:10;stroke-width:15px;}.cls-2{fill:#fff;}</style></defs><g id="Calque_2" data-name="Calque 2"><g id="Calque_1-2" data-name="Calque 1"><line class="cls-1" x1="74" y1="124" x2="136" y2="124"/><line class="cls-1" x1="191.5" y1="33.5" x2="133.5" y2="122.5"/><line class="cls-1" x1="180.5" y1="209.5" x2="131.5" y2="123.5"/><path d="M89.8,37.94a50.19,50.19,0,0,1,5.59,1.84c1.75.67,3.4,1.39,5,2.14.37.21.39.59.45.95a4.61,4.61,0,0,0,.43,1l1,1.86,1.92,3.73,7.67,14.9,7.68,14.91,3.83,7.45c-.34,1.75-.68,3.5-1.17,5.32l-.73,2.73c-.31,1-.56,1.86-.93,2.84-1-.27-1.89-.6-2.84-.9l-2.66-1c-1.76-.66-3.38-1.4-5-2.13l-3.84-7.46-7.67-14.9L90.8,56.28l-1.91-3.73-1-1.86a4.53,4.53,0,0,0-.53-.9c-.26-.27-.56-.51-.51-.92.31-1.73.68-3.5,1.15-5.31A54.31,54.31,0,0,1,89.8,37.94Z"/><path d="M75.87,209.55a53,53,0,0,1-.91-5.81c-.2-1.87-.3-3.66-.35-5.42,0-.42.34-.61.63-.83a4.65,4.65,0,0,0,.66-.82l1.22-1.7,2.45-3.41L89.36,178l9.8-13.61,4.89-6.81c1.71-.49,3.43-1,5.27-1.37l2.77-.59c1-.15,1.91-.34,2.94-.46.22,1,.33,2,.5,2.94l.32,2.81c.22,1.88.3,3.66.38,5.43l-4.9,6.81-9.79,13.61-9.79,13.61-2.45,3.4-1.23,1.7a4.7,4.7,0,0,0-.56.88c-.12.35-.2.72-.59.87-1.68.51-3.42,1-5.25,1.39A52.63,52.63,0,0,1,75.87,209.55Z"/><circle cx="174.5" cy="207.5" r="47.5"/><circle cx="47.5" cy="123.5" r="47.5"/><circle cx="183.5" cy="47.5" r="47.5"/><circle cx="91.08" cy="40.72" r="32.18" transform="translate(-5.45 15.53) rotate(-9.46)"/><circle cx="77.76" cy="207.15" r="32.18"/><circle cx="225.32" cy="125.84" r="32.18" transform="translate(-32.22 109.15) rotate(-25.47)"/><path d="M228.38,125.91a53.28,53.28,0,0,1-4.11,4.21c-1.37,1.28-2.75,2.44-4.12,3.54-.35.24-.7.09-1.05,0a4.61,4.61,0,0,0-1,0l-2.09,0-4.19.08-16.77.34-16.76.34-8.38.16c-1.42-1.07-2.84-2.15-4.26-3.39l-2.13-1.86c-.72-.69-1.43-1.32-2.14-2.08.68-.78,1.37-1.43,2-2.16l2.06-1.94c1.37-1.3,2.75-2.43,4.12-3.56l8.38-.17,16.76-.34,16.76-.33,4.19-.09,2.1,0a4.65,4.65,0,0,0,1.05-.08c.34-.11.69-.28,1-.05,1.42,1,2.84,2.15,4.26,3.37A51.31,51.31,0,0,1,228.38,125.91Z"/><circle class="cls-2" cx="183.32" cy="47.9" r="34"/><circle class="cls-2" cx="175.32" cy="206.9" r="34"/><circle class="cls-2" cx="47.32" cy="122.9" r="34"/><circle class="cls-2" cx="77.82" cy="207.4" r="21.5"/><circle class="cls-2" cx="90.82" cy="40.4" r="21.5"/><circle class="cls-2" cx="224.82" cy="126.4" r="21.5"/></g></g></svg>