<svg xmlns="http://www.w3.org/2000/svg" viewBox="0 0 240.02 239.81"><defs><style>.cls-1{fill:#010101;}</style></defs><g id="Calque_2" data-name="Calque 2"><g id="Calque_1-2" data-name="Calque 1"><path class="cls-1" d="M235.17,103.08a31.64,31.64,0,0,0-42.84-10.87c-2.84,1.64-4.46,2.13-7.08-.56C173,79,160.41,66.58,147.85,54.18c-1.84-1.82-2.13-3.06-.76-5.43,7.61-13.18,6.34-27.29-3.13-38a31.75,31.75,0,0,0-36.45-8.18c-13,5.6-20.52,18.24-19.12,33,.29,3.13-.82,4-3.33,4.87-6.76,2.33-13.52,4.69-20.13,7.41-3.22,1.31-4.75.69-6.79-2.19-7.49-10.56-18-15.26-30.8-13.3S5.79,41.89,1.76,54.19C-2.14,66.11.49,77,9.17,86,18,95.19,29,98,41.2,94.48c3-.88,4.42-.37,5.9,2.29C50.57,103,54.27,109.14,58,115.22a4.33,4.33,0,0,1-.07,5.42c-3.56,5.22-7,10.54-10.31,15.91-1.19,1.92-2.28,2.33-4.43,1.45a29.14,29.14,0,0,0-16.18-1.7,31.94,31.94,0,0,0-8.43,60.53c13,6.08,27.9,3,37.63-8.22,2.06-2.37,3.48-2.63,6.14-1.2C69.13,191,76,194.49,82.92,197.69c3.94,1.82,7.39,3.46,5.23,7.93-.56,14.21,7.22,26.47,19.57,31.68a31.75,31.75,0,0,0,35.38-7.36,31.37,31.37,0,0,0,5.61-36.06c-1.51-3-1.65-4.67.84-7.21q18.52-18.9,36.61-38.25c2.11-2.23,3.5-2.33,6.21-.84,11.52,6.38,23.06,5.9,33.92-1.55A31.65,31.65,0,0,0,235.17,103.08Zm-54.91-5.37c1.87,1.84,2.29,3.19.71,5.43a30.13,30.13,0,0,0-3,6.25c-.67,1.68-1.61,2.45-3.27,1.91-6.74-.9-13.33-1.83-19.94-2.64-2.08-.25-2.59-1.33-2.81-3.28-1.62-13.9-9-23.63-22.31-27.85-13.59-4.29-25.28-.31-34.46,10.54-1.64,1.94-2.86,1.61-4.62.63-2.67-1.51-.5-2.83.22-4,4.44-7,9.07-13.95,13.47-21,1.37-2.21,2.59-2.74,5.17-1.78a29.78,29.78,0,0,0,27.26-2.84c2.51-1.56,3.87-1.2,5.85.81Q161.22,79,180.26,97.71Zm-67,41.28c2.19.65,2.93,1.56,2.88,3.77-.13,5.16,0,10.32,0,15.49,0,3.83-.26,7.68.07,11.48.37,4.37-.7,6.52-5.49,7.92-4.54,1.34-6.28.41-8.43-3.38-6.46-11.45-13.33-22.66-20-34-3.73-6.29-7.39-12.64-11.25-18.86-1.37-2.2-1.75-3.84-.08-6.21,4-5.71,7.63-11.72,11.48-17.55.91-1.38,1.44-3.56,4.1-2.16,2.08,1.09,3.3,1.86,2.75,4.8C85.57,119.4,94.33,133.4,113.23,139ZM96.1,107.9a24,24,0,1,1,23.7,24A24,24,0,0,1,96.1,107.9ZM120.46,8A24,24,0,1,1,96.1,31.82,24,24,0,0,1,120.46,8ZM63.65,58.38c-.36-1.83,1.26-2.08,2.48-2.52q11.48-4.2,23-8.36c.62-.22,1.65-.68,1.85-.46,2.83,3.13,5.55,6.36,8.33,9.61-.68,1.09-1.19,1.94-1.72,2.77-4.7,7.26-9.49,14.46-14,21.81-1.43,2.29-2.77,3-5.08,1.42-.54-.38-1.2-.57-1.78-.91C72.08,79.07,64.93,78.35,63.27,74S64.7,63.74,63.65,58.38ZM32,87.91A24,24,0,1,1,56.08,64.29,24,24,0,0,1,32,87.91ZM53,91.18c-.81-1.33-.75-2.16.32-3.44,5.17-6.16,5.11-6.21,12.38-2.57,2.82,1.41,5.58,3,8.48,4.2,2.38,1,2.86,2,1.27,4.35-3.67,5.29-7,10.78-10.93,16.78C60.42,103.67,56.73,97.4,53,91.18ZM32,191.83a24,24,0,1,1,24.08-23.6A24,24,0,0,1,32,191.83Zm52-2.51C77.72,186.2,71.53,183,65.22,180c-2.25-1.06-2.72-2.23-2.15-4.61C65.8,164,62.85,154,54.9,145.54c-1.17-1.26-2.31-2.18-.94-4.17,3.36-4.9,6.5-10,10.23-15.71,11.34,19.11,22.13,37.41,33.1,55.6,1.56,2.59.38,3.77-1.11,5.49C91,192.8,91,192.85,84,189.32Zm35.64,42.48A24,24,0,1,1,144,208.06,24,24,0,0,1,119.59,231.8Zm61.73-89.71q-19,19.75-37.91,39.64c-1.55,1.63-2.6,2-4.5.43a25.07,25.07,0,0,0-11.66-5.34c-2.87-.45-3.3-2-3.23-4.47.15-5,0-10,0-15,0-4.82.12-9.65-.06-14.46-.09-2.48.83-3.43,3.21-4,11-2.61,18.51-9.36,22.69-19.78.78-1.94,1.45-3,3.88-2.64,6.4,1,12.83,1.82,19.27,2.59,2.23.27,3,1.27,3.15,3.52a29,29,0,0,0,5.49,15.27C183,139.62,182.72,140.64,181.32,142.09ZM208,143.87a24,24,0,1,1,24-24.15A24,24,0,0,1,208,143.87Z"/></g></g></svg>