<svg xmlns="http://www.w3.org/2000/svg" viewBox="0 0 240.02 239.81"><defs><style>.cls-1{fill:#010101;}.cls-2{fill:#f6f6f6;}.cls-3{fill:#f5f5f5;}</style></defs><g id="Calque_2" data-name="Calque 2"><g id="Calque_1-2" data-name="Calque 1"><path class="cls-1" d="M88.15,205.62c2.16-4.47-1.29-6.11-5.23-7.93-7-3.2-13.79-6.66-20.53-10.28-2.66-1.43-4.08-1.17-6.14,1.2-9.73,11.19-24.61,14.3-37.63,8.22a31.94,31.94,0,0,1,8.43-60.53A29.14,29.14,0,0,1,43.23,138c2.15.88,3.24.47,4.43-1.45C51,131.18,54.41,125.86,58,120.64a4.33,4.33,0,0,0,.07-5.42c-3.77-6.08-7.47-12.2-10.94-18.45-1.48-2.66-2.86-3.17-5.9-2.29C29,98,18,95.19,9.17,86,.49,77-2.14,66.11,1.76,54.19c4-12.3,12.83-19.82,25.58-21.78s23.31,2.74,30.8,13.3c2,2.88,3.57,3.5,6.79,2.19,6.61-2.72,13.37-5.08,20.13-7.41,2.51-.86,3.62-1.74,3.33-4.87-1.4-14.77,6.1-27.41,19.12-33A31.75,31.75,0,0,1,144,10.79c9.47,10.67,10.74,24.78,3.13,38-1.37,2.37-1.08,3.61.76,5.43C160.41,66.58,173,79,185.25,91.65c2.62,2.69,4.24,2.2,7.08.56a31.85,31.85,0,0,1,34,53.82c-10.86,7.45-22.4,7.93-33.92,1.55-2.71-1.49-4.1-1.39-6.21.84Q168,167.71,149.55,186.67c-2.49,2.54-2.35,4.23-.84,7.21a31.37,31.37,0,0,1-5.61,36.06,31.75,31.75,0,0,1-35.38,7.36C95.37,232.09,87.59,219.83,88.15,205.62Z"/><path d="M144,107.93a24,24,0,1,1-23.7-24A24,24,0,0,1,144,107.93Z"/><path class="cls-2" d="M124.07,157.39c0-4.82.12-9.65-.06-14.46-.09-2.48.83-3.43,3.21-4,11-2.61,18.51-9.36,22.69-19.78.78-1.94,1.45-3,3.88-2.64,6.4,1,12.83,1.82,19.27,2.59,2.23.27,3,1.27,3.15,3.52a29,29,0,0,0,5.49,15.27c1.25,1.73,1,2.75-.38,4.2q-19,19.75-37.91,39.64c-1.55,1.63-2.6,2-4.5.43a25.07,25.07,0,0,0-11.66-5.34c-2.87-.45-3.3-2-3.23-4.47C124.17,167.36,124.06,162.37,124.07,157.39Z"/><path d="M144,32.11A24,24,0,1,1,120.46,8,24,24,0,0,1,144,32.11Z"/><path d="M32.2,40A24,24,0,1,1,8.15,63.6,24,24,0,0,1,32.2,40Z"/><path d="M232,119.72A24,24,0,1,1,208.09,96,24,24,0,0,1,232,119.72Z"/><path d="M32.22,143.91a24,24,0,1,1-24.08,23.6A24,24,0,0,1,32.22,143.91Z"/><path d="M144,208.06a24,24,0,1,1-23.49-24.18A24,24,0,0,1,144,208.06Z"/><path class="cls-2" d="M174.66,111.3c-6.74-.9-13.33-1.83-19.94-2.64-2.08-.25-2.59-1.33-2.81-3.28-1.62-13.9-9-23.63-22.31-27.85-13.59-4.29-25.28-.31-34.46,10.54-1.64,1.94-2.86,1.61-4.62.63-2.67-1.51-.5-2.83.22-4,4.44-7,9.07-13.95,13.47-21,1.37-2.21,2.59-2.74,5.17-1.78a29.78,29.78,0,0,0,27.26-2.84c2.51-1.56,3.87-1.2,5.85.81q18.73,19,37.77,37.79c1.87,1.84,2.29,3.19.71,5.43a30.13,30.13,0,0,0-3,6.25C177.26,111.07,176.32,111.84,174.66,111.3Z"/><path class="cls-2" d="M116.07,158.25c0,3.83-.26,7.68.07,11.48.37,4.37-.7,6.52-5.49,7.92-4.54,1.34-6.28.41-8.43-3.38-6.46-11.45-13.33-22.66-20-34-3.73-6.29-7.39-12.64-11.25-18.86-1.37-2.2-1.75-3.84-.08-6.21,4-5.71,7.63-11.72,11.48-17.55.91-1.38,1.44-3.56,4.1-2.16,2.08,1.09,3.3,1.86,2.75,4.8-3.6,19.08,5.16,33.08,24.06,38.67,2.19.65,2.93,1.56,2.88,3.77C116,147.92,116.07,153.08,116.07,158.25Z"/><path class="cls-2" d="M64.19,125.66c11.34,19.11,22.13,37.41,33.1,55.6,1.56,2.59.38,3.77-1.11,5.49C91,192.8,91,192.85,84,189.32,77.72,186.2,71.53,183,65.22,180c-2.25-1.06-2.72-2.23-2.15-4.61C65.8,164,62.85,154,54.9,145.54c-1.17-1.26-2.31-2.18-.94-4.17C57.32,136.47,60.46,131.42,64.19,125.66Z"/><path class="cls-2" d="M99.27,56.65c-.68,1.09-1.19,1.94-1.72,2.77-4.7,7.26-9.49,14.46-14,21.81-1.43,2.29-2.77,3-5.08,1.42-.54-.38-1.2-.57-1.78-.91C72.08,79.07,64.93,78.35,63.27,74s1.43-10.23.38-15.59c-.36-1.83,1.26-2.08,2.48-2.52q11.48-4.2,23-8.36c.62-.22,1.65-.68,1.85-.46C93.77,50.17,96.49,53.4,99.27,56.65Z"/><path class="cls-3" d="M64.48,110.5C60.42,103.67,56.73,97.4,53,91.18c-.81-1.33-.75-2.16.32-3.44,5.17-6.16,5.11-6.21,12.38-2.57,2.82,1.41,5.58,3,8.48,4.2,2.38,1,2.86,2,1.27,4.35C71.74,99,68.36,104.5,64.48,110.5Z"/></g></g></svg>