<svg xmlns="http://www.w3.org/2000/svg" viewBox="0 0 242.25 241.48"><defs><style>.cls-1{fill:#080705;}.cls-2{fill:#fdde01;}.cls-3{fill:#a5a5a5;}.cls-4{fill:#f9893d;}.cls-5{fill:#fefefe;}</style></defs><g id="Calque_2" data-name="Calque 2"><g id="Calque_1-2" data-name="Calque 1"><path class="cls-1" d="M117.79,0c20.75.09,39.12,5.59,55,17.12C190,29.56,201,46.49,204.78,67.7c1,5.38,2.15,10.73,2.8,16.17.39,3.36,2.85,5.43,5.22,7.53a211.71,211.71,0,0,1,16.65,15.9c7.5,8.31,10.75,18.36,12.37,29.14a34.89,34.89,0,0,1,.13,10.05,12.07,12.07,0,0,1-8.18,10c-4.59,1.68-9.08.28-12.84-3-.35-.31-.64-.69-1-1-1.59-1.21-3.07-.75-3.88,1.1-2.15,4.91-2.44,10.17-2.83,15.38-.77,10-2.47,19.8-7.11,28.87a10.61,10.61,0,0,0-.21,9.45c2.2,5.32,1.41,7.26-3.66,9.75a6.94,6.94,0,0,0-3.74,4.78c-1.35,5.18-3.22,6.66-8.46,6.92-6.75.34-13.27,1.22-19.27,5-5.51,3.46-11.3,1.75-16-1.74a12.22,12.22,0,0,0-10.63-2.29c-14.15,3-28.47,3.08-42.81,2.26a6.1,6.1,0,0,0-4.85,1.75c-1.48,1.37-3,2.7-4.48,4.06-4.39,4-9,4.84-14.15,1.83a13.68,13.68,0,0,0-11.45-1.34,20.81,20.81,0,0,1-3.68.71c-6.75.71-11-1.93-13.38-8.42a5.89,5.89,0,0,0-5-4.21c-6.51-1-8.77-6.78-4.77-12,2.14-2.81,2.21-4.8-.28-7.23-6.49-6.33-9.33-14.43-11.5-22.9-.59-2.34-1.16-4.7-1.94-7-.86-2.52-2.63-3.48-5.24-3.26-3.73.31-7.49.29-11.18,1.09-1.44.31-2.1-.75-2.69-1.79A48.92,48.92,0,0,1,1.06,157c-2.45-15.07-.73-29.61,6-43.4,3-6.12,7-11.47,12.76-15.34a1.51,1.51,0,0,0,.85-1.46c-.17-11.22,3.4-21.66,6.84-32.11,1.85-5.63,4.19-11.07,6.56-16.5,4.83-11.08,12.72-19.58,22-27A91.56,91.56,0,0,1,98.9,2C105.45,1,112-.25,117.79,0Zm-76,44.73A113,113,0,0,0,29,79.89c-1.14,4.72-1.34,9.59-2.14,14.37a1.88,1.88,0,0,0,.56,1.7c1.52,1.53.89,2.7-.65,3.81-6.61,4.78-11.35,11.23-15.48,18.09A41.69,41.69,0,0,0,6,133.34c-.72,5-1.7,10,1,14.83,2.07,3.73,2.82,8.14,5.6,11.57,1.87,2.31,4.37,4,6.1,6.47,2.14,3,4.47,4,7.59,3.3,3.54-.81,4.87-2.35,5.52-6.36.08-.55.15-1.09.18-1.64.62-10.89,4.64-19.72,14.91-24.83,1.37-.68,2.55-.63,3.32.72s.47,2.38-1.09,3c-1,.38-2.11.6-2.68,1.69.59.76,1.32.34,2,.3,3.64-.24,7-1.65,10.51-2.45Q98,131,137.11,122.07a3.34,3.34,0,0,1,4,1.63,7.42,7.42,0,0,1,.91,3.83,47.38,47.38,0,0,1-3.76,20.88,40.85,40.85,0,0,1-20.34,21.5c-4.71,2.25-9.78,2.7-14.86,3.1-9.84.78-19.63,2.19-29.52,2.39-8,.17-15.16-1.49-19.67-9-.61-1-1.18-2-1.71-3.07-.77-1.54-2.1-1.06-3.29-.91s-1.24,1.05-1.23,2.1c0,3-.78,3.85-3.84,4.21s-6.39.66-9.59,1-3.93,1.64-3.1,4.55A37.17,37.17,0,0,1,32.74,181a34.68,34.68,0,0,0,6.82,18A49.87,49.87,0,0,0,50.2,209.8c3.09,2.21,6.62,3.8,10,5.66,9.25,5.18,19.54,7.48,29.62,10.07,4,1.05,8.6,1.23,13,1.48a163.53,163.53,0,0,0,21.11.29c13.13-.94,26-2.87,38.52-7.59,10.87-4.1,21-9.13,29.81-16.79,7.6-6.63,12.52-14.8,13.84-24.94.39-3.07.32-6.25.81-9.2.85-5.11.55-10.23,1.08-15.32.78-7.58-.13-15.18-.38-22.78A323.93,323.93,0,0,0,199,65.78c-4.61-19.35-15.91-34.34-32.29-45.17C149.18,9,129.72,3.76,108.61,5.66,88.78,7.45,71,14.25,56.1,27.75A74.78,74.78,0,0,0,41.82,44.77ZM73.68,171.06c11.21-.77,23.21-2,35.15-3.65,9.16-1.25,16-6.4,21.27-14.07a50.69,50.69,0,0,0,5.65-11.85c1.31-3.66,1.44-7.59,1.86-11.42.13-1.19-.33-2.91-1.77-2.26-1.23.56-2.36.38-3.51.64q-13.71,3.09-27.46,6.06Q89,138,73,141.39c-4.67,1-9.33,2.05-14,3-6.52,1.26-6.32,1.23-6.89,7.85-.6,7,2.06,12.11,7.62,16C63.72,171,68.32,170.86,73.68,171.06Zm163-31.24a36,36,0,0,0-3.67-15c-4.67-9.72-11.8-17.43-19.75-24.48-.77-.68-1.52-1.83-2.79-1.1s-.88,1.88-.77,3c1.21,11.53,2.35,23.06,2.48,34.66a3.16,3.16,0,0,0,1,2.52c2.71,2.48,5.32,5.06,8,7.53a17.67,17.67,0,0,0,7.81,4.56c3,.69,4.73-.26,6-3S236.49,142.57,236.63,139.82ZM82.92,235.66a6.17,6.17,0,0,0,5.31-2.54c2.45-3.22,2.36-3.65-1.69-4.49-12-2.46-23.1-7.21-33.76-13.09-4.59-2.53-4.54-2.53-8.43,2.37-1.23,1.56-.54,2,1,2.24,1.08.14,2.18.18,3.26.36,2.92.47,5,2.22,5.3,5.13.57,5.78,5.4,8,10.37,7l7.35-1.51c2.67-.57,4.94-.05,6.71,2.2A5.49,5.49,0,0,0,82.92,235.66Zm102-10c4.93.06,8-2.71,8.14-7s1.95-6.24,6.12-6.9c.69-.12,1.4-.18,2.08-.36,1.56-.41,1.86-1.39.68-2.48s-2.68-2.15-4-3.23a1.71,1.71,0,0,0-2.17-.11,33.65,33.65,0,0,0-2.89,2A98,98,0,0,1,174.4,219c-4.53,2.15-9.22,3.9-13.85,5.8-2.2.91-2.41,1.8-.9,3.68,3,3.68,7.82,3.59,10.47-.36a6.26,6.26,0,0,1,5.89-3A72.46,72.46,0,0,1,184.94,225.67ZM45.2,151.06a22.5,22.5,0,0,0,.57,5.62c.23,1.27.9,2.12,2.44,1.78,1.29-.28,2.61-.19,2.47-2.25a35.59,35.59,0,0,1,.19-7.92c.12-.75.45-1.78-.72-2.18a3.69,3.69,0,0,0-5,3.84C45.17,150.26,45.18,150.57,45.2,151.06Zm-2.11,13.85c-.81,1.16.63,1.45.84,1.43.94-.1,2-.67,1.85-1.65s-.68-2.54-1.6-2.5C42.57,162.25,43.76,164.11,43.09,164.91Zm-6-2.2a3.33,3.33,0,0,0-1.91,2.48c-.17.55.25,1,.78.67,1.1-.59,3.11.24,3.19-1.87C39.18,163.12,38.44,162.67,37.08,162.71Z"/><path class="cls-2" d="M41.82,44.77a74.78,74.78,0,0,1,14.28-17C71,14.25,88.78,7.45,108.61,5.66c21.11-1.9,40.57,3.37,58.08,15C183.07,31.44,194.37,46.43,199,65.78a323.93,323.93,0,0,1,8.55,64.9c.25,7.6,1.16,15.2.38,22.78-.53,5.09-.23,10.21-1.08,15.32-.49,2.95-.42,6.13-.81,9.2-1.32,10.14-6.24,18.31-13.84,24.94-8.76,7.66-18.94,12.69-29.81,16.79-12.48,4.72-25.39,6.65-38.52,7.59a163.53,163.53,0,0,1-21.11-.29c-4.36-.25-8.91-.43-13-1.48-10.08-2.59-20.37-4.89-29.62-10.07-3.34-1.86-6.87-3.45-10-5.66A49.87,49.87,0,0,1,39.56,199a34.68,34.68,0,0,1-6.82-18,37.17,37.17,0,0,0-1.63-6.72c-.83-2.91,0-4.25,3.1-4.55s6.4-.59,9.59-1,3.85-1.22,3.84-4.21c0-1.05,0-2,1.23-2.1s2.52-.63,3.29.91c.53,1,1.1,2.07,1.71,3.07,4.51,7.48,11.72,9.14,19.67,9,9.89-.2,19.68-1.61,29.52-2.39,5.08-.4,10.15-.85,14.86-3.1a40.85,40.85,0,0,0,20.34-21.5A47.38,47.38,0,0,0,142,127.53a7.42,7.42,0,0,0-.91-3.83,3.34,3.34,0,0,0-4-1.63Q98,131,58.91,139.93c-3.51.8-6.87,2.21-10.51,2.45-.65,0-1.38.46-2-.3.57-1.09,1.7-1.31,2.68-1.69,1.56-.61,1.82-1.7,1.09-3s-2-1.4-3.32-.72C36.61,141.79,32.59,150.62,32,161.51c0,.55-.1,1.09-.18,1.64-.65,4-2,5.55-5.52,6.36-3.12.73-5.45-.27-7.59-3.3-1.73-2.45-4.23-4.16-6.1-6.47C9.8,156.31,9.05,151.9,7,148.17c-2.71-4.87-1.73-9.87-1-14.83a41.69,41.69,0,0,1,5.32-15.48c4.13-6.86,8.87-13.31,15.48-18.09,1.54-1.11,2.17-2.28.65-3.81a1.88,1.88,0,0,1-.56-1.7c.8-4.78,1-9.65,2.14-14.37.7-2,1.52-4,2.08-6.07a141,141,0,0,1,6.71-19.18C39.21,51.38,41,48.25,41.82,44.77Zm79.4,59.49c8.25,0,15.68-.38,23-2.06,5.8-1.34,11.33-3.27,15.68-7.61,4.66-4.64,5.39-10.7,1.83-15.52a23.08,23.08,0,0,0-10.57-8c-15.67-5.88-31.43-5.67-47,.15A28.56,28.56,0,0,0,87.68,86.46c-1.45,3.15-.68,5.76,1.21,8.29,2.24,3,5.42,4.67,8.83,6C105.55,103.74,113.76,104.13,121.22,104.26ZM76.27,60.77c-5.3-.07-9.36,3.68-9.39,8.68a8.62,8.62,0,0,0,8.84,8.91c4.55.08,8.76-4.32,8.81-9.22A8.24,8.24,0,0,0,76.27,60.77Zm93.2,13.3a8.25,8.25,0,0,0,8.31-8.34,9.13,9.13,0,0,0-8.92-9.23,8.6,8.6,0,0,0-8.64,7.89A9.18,9.18,0,0,0,169.47,74.07Z"/><path class="cls-3" d="M73.68,171.06c-5.36-.2-10,0-13.93-2.83-5.56-3.92-8.22-9.08-7.62-16,.57-6.62.37-6.59,6.89-7.85,4.69-.91,9.35-2,14-3Q89,138,104.87,134.51q13.74-3,27.46-6.06c1.15-.26,2.28-.08,3.51-.64,1.44-.65,1.9,1.07,1.77,2.26-.42,3.83-.55,7.76-1.86,11.42a50.69,50.69,0,0,1-5.65,11.85c-5.24,7.67-12.11,12.82-21.27,14.07C96.89,169.05,84.89,170.29,73.68,171.06Z"/><path class="cls-2" d="M236.63,139.82c-.14,2.75-.29,5.79-1.63,8.63s-3.06,3.72-6,3a17.67,17.67,0,0,1-7.81-4.56c-2.73-2.47-5.34-5-8-7.53a3.16,3.16,0,0,1-1-2.52c-.13-11.6-1.27-23.13-2.48-34.66-.11-1.08-.41-2.29.77-3s2,.42,2.79,1.1c7.95,7.05,15.08,14.76,19.75,24.48A36,36,0,0,1,236.63,139.82Z"/><path class="cls-4" d="M82.92,235.66a5.49,5.49,0,0,1-4.59-2.38c-1.77-2.25-4-2.77-6.71-2.2l-7.35,1.51c-5,1-9.8-1.17-10.37-7-.29-2.91-2.38-4.66-5.3-5.13-1.08-.18-2.18-.22-3.26-.36-1.53-.2-2.22-.68-1-2.24,3.89-4.9,3.84-4.9,8.43-2.37,10.66,5.88,21.76,10.63,33.76,13.09,4,.84,4.14,1.27,1.69,4.49A6.17,6.17,0,0,1,82.92,235.66Z"/><path class="cls-4" d="M184.94,225.67a72.46,72.46,0,0,0-8.93-.56,6.26,6.26,0,0,0-5.89,3c-2.65,4-7.5,4-10.47.36-1.51-1.88-1.3-2.77.9-3.68,4.63-1.9,9.32-3.65,13.85-5.8a98,98,0,0,0,18.48-11.51,33.65,33.65,0,0,1,2.89-2,1.71,1.71,0,0,1,2.17.11c1.34,1.08,2.75,2.08,4,3.23s.88,2.07-.68,2.48c-.68.18-1.39.24-2.08.36-4.17.66-6,2.68-6.12,6.9S189.87,225.73,184.94,225.67Zm2.12-1.6c-2.62-.72-4.68,0-6.75-.14A13.56,13.56,0,0,0,187.06,224.07Z"/><path class="cls-5" d="M45.2,151.06c0-.49,0-.8-.05-1.11a3.69,3.69,0,0,1,5-3.84c1.17.4.84,1.43.72,2.18a35.59,35.59,0,0,0-.19,7.92c.14,2.06-1.18,2-2.47,2.25-1.54.34-2.21-.51-2.44-1.78A22.5,22.5,0,0,1,45.2,151.06Z"/><path class="cls-5" d="M41.82,44.77c-.87,3.48-2.61,6.61-4,9.87a141,141,0,0,0-6.71,19.18c-.56,2.06-1.38,4.05-2.08,6.07A113,113,0,0,1,41.82,44.77Z"/><path class="cls-5" d="M43.09,164.91c.67-.8-.52-2.66,1.09-2.72.92,0,1.46,1.55,1.6,2.5s-.91,1.55-1.85,1.65C43.72,166.36,42.28,166.07,43.09,164.91Z"/><path class="cls-5" d="M37.08,162.71c1.36,0,2.1.41,2.06,1.28-.08,2.11-2.09,1.28-3.19,1.87-.53.29-1-.12-.78-.67A3.33,3.33,0,0,1,37.08,162.71Z"/><path class="cls-1" d="M121.22,104.26c-7.46-.13-15.67-.52-23.5-3.53-3.41-1.31-6.59-3-8.83-6-1.89-2.53-2.66-5.14-1.21-8.29A28.56,28.56,0,0,1,104.11,71.2c15.6-5.82,31.36-6,47-.15a23.08,23.08,0,0,1,10.57,8c3.56,4.82,2.83,10.88-1.83,15.52-4.35,4.34-9.88,6.27-15.68,7.61C136.9,103.88,129.47,104.28,121.22,104.26Zm27-19.37a353.37,353.37,0,0,0-39.55,2.53A119.45,119.45,0,0,0,93.39,90c-2.3.59-2.64,1.58-1.19,3.42a8.69,8.69,0,0,0,1.35,1.29c3.44,3,7.63,4.17,12,5,7.56,1.5,15.24,1.57,22.9,1.28s15-1.12,22.06-4c4.57-1.83,8.41-4.48,10-9.42.68-2,.17-2.72-2-2.74C155.07,84.87,151.63,84.89,148.18,84.89Zm-9.4-3c6.22-.34,11.93-.14,17.64,0,.81,0,1.82.39,2.25-.71s-.45-1.6-1-2.17a24.31,24.31,0,0,0-10-5.94,65.44,65.44,0,0,0-18.29-2.58c-9-.16-17.81.71-26.08,4.63a26,26,0,0,0-11,9.28c-.45.69-.87,1.37-.4,2.15s1.25.41,1.91.29c2-.35,4-.78,6-1.13A276.9,276.9,0,0,1,138.78,81.9Z"/><path class="cls-1" d="M76.27,60.77a8.24,8.24,0,0,1,8.26,8.37c0,4.9-4.26,9.3-8.81,9.22a8.62,8.62,0,0,1-8.84-8.91C66.91,64.45,71,60.7,76.27,60.77Z"/><path class="cls-1" d="M169.47,74.07a9.18,9.18,0,0,1-9.25-9.68,8.6,8.6,0,0,1,8.64-7.89,9.13,9.13,0,0,1,8.92,9.23A8.25,8.25,0,0,1,169.47,74.07Z"/><path class="cls-5" d="M187.06,224.07a13.56,13.56,0,0,1-6.75-.14C182.38,224,184.44,223.35,187.06,224.07Z"/><path class="cls-4" d="M148.18,84.89c3.45,0,6.89,0,10.34,0,2.16,0,2.67.7,2,2.74-1.64,4.94-5.48,7.59-10,9.42-7.07,2.84-14.54,3.69-22.06,4s-15.34.22-22.9-1.28c-4.32-.86-8.51-2.08-12-5a8.69,8.69,0,0,1-1.35-1.29c-1.45-1.84-1.11-2.83,1.19-3.42a119.45,119.45,0,0,1,15.24-2.58A353.37,353.37,0,0,1,148.18,84.89Z"/><path class="cls-4" d="M138.78,81.9A276.9,276.9,0,0,0,99.9,85.69c-2,.35-4,.78-6,1.13-.66.12-1.44.52-1.91-.29s0-1.46.4-2.15a26,26,0,0,1,11-9.28c8.27-3.92,17.09-4.79,26.08-4.63a65.44,65.44,0,0,1,18.29,2.58,24.31,24.31,0,0,1,10,5.94c.59.57,1.43,1.16,1,2.17s-1.44.72-2.25.71C150.71,81.76,145,81.56,138.78,81.9Zm-14.29-.4c-4.88-.93-9.58.34-14.3,1.34A91.54,91.54,0,0,0,124.49,81.5Z"/><path class="cls-5" d="M124.49,81.5a91.54,91.54,0,0,1-14.3,1.34C114.91,81.84,119.61,80.57,124.49,81.5Z"/></g></g></svg>